<?xml version="1.0" encoding="UTF-8"?>
<svg width="159px" height="183px" viewBox="0 0 159 183" version="1.1" xmlns="http://www.w3.org/2000/svg" xmlns:xlink="http://www.w3.org/1999/xlink">
    <!-- Generator: Sketch 64 (93537) - https://sketch.com -->
    <title>icono podcast</title>
    <desc>Created with Sketch.</desc>
    <g id="icono-podcast" stroke="none" stroke-width="1" fill="none" fill-rule="evenodd" stroke-linecap="round" stroke-linejoin="round">
        <g id="Podcasts" transform="translate(9.000000, 19.000000)" stroke="#04A902">
            <g id="headphones">
                <g transform="translate(0.406312, 0.000000)" stroke-width="9.328">
                    <path d="M0,118.333332 L0,71 C0,31.7877821 31.6069062,0 70.596,0 C109.585094,0 141.192,31.7877821 141.192,71 L141.192,118.333332 M141.192,126.222221 C141.192,134.936047 134.168243,141.999999 125.504,141.999999 L117.66,141.999999 C108.995757,141.999999 101.972,134.936047 101.972,126.222221 L101.972,102.555554 C101.972,93.8417284 108.995757,86.7777767 117.66,86.7777767 L141.192,86.7777767 L141.192,126.222221 Z M0,126.222221 C0,134.936047 7.02375684,141.999999 15.688,141.999999 L23.532,141.999999 C32.1962432,141.999999 39.22,134.936047 39.22,126.222221 L39.22,102.555554 C39.22,93.8417284 32.1962432,86.7777767 23.532,86.7777767 L0,86.7777767 L0,126.222221 Z" id="Combined-Shape"></path>
                </g>
            </g>
        </g>
    </g>
</svg>