<?xml version="1.0" encoding="UTF-8"?>
<svg width="159px" height="183px" viewBox="0 0 159 183" version="1.1" xmlns="http://www.w3.org/2000/svg" xmlns:xlink="http://www.w3.org/1999/xlink">
    <!-- Generator: Sketch 64 (93537) - https://sketch.com -->
    <title>icono estaciones</title>
    <desc>Created with Sketch.</desc>
    <defs>
        <polygon id="path-1" points="0 0 150 0 150 161.842105 0 161.842105"></polygon>
    </defs>
    <g id="icono-estaciones" stroke="none" stroke-width="1" fill="none" fill-rule="evenodd" opacity="0.8">
        <g id="Group-3" transform="translate(5.000000, 10.000000)">
            <mask id="mask-2" fill="white">
                <use xlink:href="#path-1"></use>
            </mask>
            <g id="Clip-2"></g>
            <path d="M134.813446,66.0403613 C139.570255,62.6525756 141.305954,57.3652044 139.547307,52.1453741 C137.847722,47.1005359 133.029596,43.805235 127.841307,44.1471603 C127.051327,44.1989672 126.152255,44.0040199 126.737968,45.466125 C129.464152,52.2700944 132.103062,59.1101367 134.813446,66.0403613 M83.2958347,146.240855 C83.3575284,145.522467 82.9061112,145.043925 82.5634103,144.519332 C76.6885917,135.521438 70.7994783,126.532753 64.9581398,117.512217 C64.3667832,116.598881 63.8367442,116.229325 62.7142201,116.458043 C57.8802944,117.441606 53.1144573,118.650817 48.4659888,120.342791 C47.2584478,120.78219 46.9443366,121.126802 47.7790823,122.390122 C53.8047495,131.515423 59.7450235,140.700206 65.7157683,149.863499 C66.5151529,151.089595 67.4213729,152.218601 68.6443373,153.041371 C69.4651643,153.593594 70.3683748,153.886399 71.3061941,153.512238 C74.4935756,152.24201 77.6892332,150.985598 80.8235732,149.586812 C82.1759439,148.98355 83.0975874,147.829216 83.2958347,146.240855 M100.622731,8.17285108 C100.134825,8.31791033 99.4001431,8.47870351 98.7087225,8.75308806 C96.1529488,9.76735152 93.6013131,10.7927439 91.0684865,11.8641868 C88.0353391,13.1474622 87.3040432,14.9380613 88.5330265,18.0760228 C100.761166,49.3082762 112.996077,80.5386109 125.235502,111.766259 C126.416334,114.7795 128.189275,115.59306 131.158471,114.447553 C133.547973,113.52539 135.902866,112.510743 138.273559,111.539844 C142.022578,110.005593 142.705347,108.39958 141.223194,104.615759 C132.296043,81.8272589 123.367763,59.0395258 114.445502,36.2494903 C111.163323,27.8656031 107.881144,19.4817159 104.635078,11.0832461 C103.941776,9.28842576 102.783139,8.26840598 100.622731,8.17285108 M83.5004772,27.4131564 C83.2578405,27.5071763 83.1062395,27.5171539 83.0422887,27.5985099 C82.6939451,28.0452003 82.3666677,28.5087759 82.0329951,28.9673626 C69.9297478,45.6111842 55.3967474,59.4931238 37.5413165,69.5693688 C30.2069156,73.7081624 22.266111,76.4451003 14.5043685,79.5654091 C11.1567339,80.9108528 9.34278911,83.2160668 8.5750037,86.5708497 C7.02777127,93.3333736 8.43243111,99.7332494 11.1823142,105.884068 C13.5003415,111.070128 16.6756852,115.585385 21.6333746,118.533004 C24.2136,120.067255 26.842729,120.426833 29.677629,119.159292 C32.5294571,117.884459 35.4945157,116.873649 38.3459676,115.596898 C60.0519872,105.878312 82.7259205,104.322955 105.92726,107.209941 C108.989749,107.591009 112.033053,108.133254 115.297176,108.632903 C104.642601,81.4174089 94.0719155,54.4172014 83.5004772,27.4131564 M73.0528024,115.076143 C78.3388978,123.167993 83.2209747,131.264064 88.7260074,138.891954 C94.0674013,146.291895 90.261202,154.930211 82.9587766,157.689407 C80.5636322,158.594684 78.1556976,159.486914 75.8316514,160.561427 C69.2552553,163.601147 63.4861435,160.891456 60.1693557,155.987071 C54.4965463,147.598196 49.0291317,139.065412 43.4767002,130.59211 C42.2966205,128.791917 41.0691419,127.020122 39.9718219,125.168122 C39.4380211,124.267066 38.9267911,124.220632 38.0427658,124.573302 C35.0863593,125.75258 32.2571021,127.347848 29.1107242,127.934609 C23.2396674,129.029461 18.1363961,126.929172 13.9344543,123.030992 C2.89241359,112.786663 -1.98815864,100.090525 0.74404393,84.9003659 C1.84174007,78.7959811 5.3387186,74.3697554 11.2658264,72.0065944 C18.344048,69.1848467 25.579137,66.697733 32.2996105,63.0275038 C47.5672924,54.6892835 60.176127,43.0837763 71.2159106,29.6136054 C73.3368191,27.0255642 75.259104,24.2652173 77.2114833,21.538257 C78.7463018,19.3934524 79.866945,17.2340651 80.0490166,14.3236701 C80.3304,9.8360436 83.0238559,6.54342897 87.0674254,4.67799776 C90.1870944,3.23853419 93.3835043,1.94873491 96.6122658,0.7844234 C103.095369,-1.55302598 109.550259,1.47671673 112.098509,7.96562359 C115.644391,16.9961373 119.168454,26.0354773 122.679352,35.0798062 C123.052147,36.0399602 123.335035,36.6470601 124.64565,36.3834206 C134.067103,34.4876728 143.288804,39.5847017 146.844466,48.545372 C150.320003,57.3034199 147.225162,67.5508195 139.389688,72.8009665 C138.123839,73.6494479 137.996313,74.2991445 138.532747,75.6445882 C142.077125,84.537334 145.554542,93.4580939 149.020297,102.383075 C151.62046,109.080361 148.913086,115.846338 142.46271,118.691495 C139.546179,119.978224 136.597672,121.213147 133.593867,122.263099 C128.461254,124.057536 123.863569,123.112732 120.074674,118.995045 C119.524322,118.397155 118.927699,118.115863 118.171199,117.92437 C106.433223,114.954493 94.5007619,114.080683 82.4535655,114.435273 C79.4004805,114.525455 76.3455147,114.60566 73.0528024,115.076143" id="Fill-1" fill="#04A902" mask="url(#mask-2)"></path>
        </g>
    </g>
</svg>